<svg width="1080" height="1080" viewBox="0 0 1080 1080" fill="none" xmlns="http://www.w3.org/2000/svg">
    <rect width="1080" height="1080" fill="white"/>
    <path d="M146.216 496V400.64H163.624V450.304L158.888 448.64L199.464 400.64H221.352L183.336 445.696L184.36 433.408L222.504 496H202.024L176.424 454.016L163.624 469.248V496H146.216ZM231.683 496V426.368H247.427V440.064L246.147 437.632C247.768 433.451 250.414 430.293 254.083 428.16C257.838 425.941 262.19 424.832 267.139 424.832C272.259 424.832 276.782 425.941 280.707 428.16C284.718 430.379 287.832 433.493 290.051 437.504C292.27 441.429 293.379 445.995 293.379 451.2V496H276.611V455.168C276.611 452.096 276.014 449.451 274.819 447.232C273.624 445.013 271.96 443.307 269.827 442.112C267.779 440.832 265.347 440.192 262.531 440.192C259.8 440.192 257.368 440.832 255.235 442.112C253.102 443.307 251.438 445.013 250.243 447.232C249.048 449.451 248.451 452.096 248.451 455.168V496H231.683ZM341.606 497.536C334.779 497.536 328.55 495.957 322.918 492.8C317.371 489.643 312.934 485.333 309.606 479.872C306.363 474.411 304.742 468.181 304.742 461.184C304.742 454.187 306.363 447.957 309.606 442.496C312.934 437.035 317.371 432.725 322.918 429.568C328.465 426.411 334.694 424.832 341.606 424.832C348.433 424.832 354.619 426.411 360.166 429.568C365.713 432.725 370.107 437.035 373.35 442.496C376.678 447.872 378.342 454.101 378.342 461.184C378.342 468.181 376.678 474.411 373.35 479.872C370.022 485.333 365.585 489.643 360.038 492.8C354.491 495.957 348.347 497.536 341.606 497.536ZM341.606 482.176C345.361 482.176 348.646 481.28 351.462 479.488C354.363 477.696 356.625 475.221 358.246 472.064C359.953 468.821 360.806 465.195 360.806 461.184C360.806 457.088 359.953 453.504 358.246 450.432C356.625 447.275 354.363 444.8 351.462 443.008C348.646 441.131 345.361 440.192 341.606 440.192C337.766 440.192 334.395 441.131 331.494 443.008C328.593 444.8 326.289 447.275 324.582 450.432C322.961 453.504 322.15 457.088 322.15 461.184C322.15 465.195 322.961 468.821 324.582 472.064C326.289 475.221 328.593 477.696 331.494 479.488C334.395 481.28 337.766 482.176 341.606 482.176ZM407.344 496L383.408 426.368H401.072L418.608 479.232L412.464 479.104L431.152 426.368H446L464.56 479.104L458.416 479.232L475.952 426.368H493.616L469.68 496H454.704L435.76 440.832H441.392L422.192 496H407.344ZM502.808 496V399.104H519.576V496H502.808ZM528.786 496L553.106 461.056L528.658 426.368H548.37L567.442 454.528H558.61L577.682 426.368H597.266L572.946 461.056L597.138 496H577.554L558.738 467.968H567.314L548.498 496H528.786ZM637.469 497.536C630.557 497.536 624.328 495.957 618.781 492.8C613.32 489.557 609.01 485.205 605.853 479.744C602.696 474.197 601.117 467.968 601.117 461.056C601.117 454.144 602.696 447.957 605.853 442.496C609.01 437.035 613.32 432.725 618.781 429.568C624.328 426.411 630.557 424.832 637.469 424.832C642.418 424.832 647.026 425.728 651.293 427.52C655.56 429.227 659.229 431.616 662.301 434.688C665.458 437.675 667.72 441.259 669.085 445.44L654.365 451.84C653.085 448.341 650.909 445.525 647.837 443.392C644.85 441.259 641.394 440.192 637.469 440.192C633.8 440.192 630.514 441.088 627.613 442.88C624.797 444.672 622.578 447.147 620.957 450.304C619.336 453.461 618.525 457.088 618.525 461.184C618.525 465.28 619.336 468.907 620.957 472.064C622.578 475.221 624.797 477.696 627.613 479.488C630.514 481.28 633.8 482.176 637.469 482.176C641.48 482.176 644.978 481.109 647.965 478.976C650.952 476.843 653.085 473.984 654.365 470.4L669.085 477.056C667.72 480.981 665.501 484.523 662.429 487.68C659.357 490.752 655.688 493.184 651.421 494.976C647.154 496.683 642.504 497.536 637.469 497.536ZM681.808 496V426.368H698.576V496H681.808ZM681.808 418.56V400.64H698.576V418.56H681.808ZM714.058 496V426.368H729.802V441.856L728.522 439.552C730.143 434.347 732.661 430.72 736.074 428.672C739.573 426.624 743.754 425.6 748.618 425.6H752.714V440.448H746.698C741.919 440.448 738.079 441.941 735.178 444.928C732.277 447.829 730.826 451.925 730.826 457.216V496H714.058ZM795.469 497.536C788.557 497.536 782.328 495.957 776.781 492.8C771.32 489.557 767.01 485.205 763.853 479.744C760.696 474.197 759.117 467.968 759.117 461.056C759.117 454.144 760.696 447.957 763.853 442.496C767.01 437.035 771.32 432.725 776.781 429.568C782.328 426.411 788.557 424.832 795.469 424.832C800.418 424.832 805.026 425.728 809.293 427.52C813.56 429.227 817.229 431.616 820.301 434.688C823.458 437.675 825.72 441.259 827.085 445.44L812.365 451.84C811.085 448.341 808.909 445.525 805.837 443.392C802.85 441.259 799.394 440.192 795.469 440.192C791.8 440.192 788.514 441.088 785.613 442.88C782.797 444.672 780.578 447.147 778.957 450.304C777.336 453.461 776.525 457.088 776.525 461.184C776.525 465.28 777.336 468.907 778.957 472.064C780.578 475.221 782.797 477.696 785.613 479.488C788.514 481.28 791.8 482.176 795.469 482.176C799.48 482.176 802.978 481.109 805.965 478.976C808.952 476.843 811.085 473.984 812.365 470.4L827.085 477.056C825.72 480.981 823.501 484.523 820.429 487.68C817.357 490.752 813.688 493.184 809.421 494.976C805.154 496.683 800.504 497.536 795.469 497.536ZM839.808 496V399.104H856.576V496H839.808ZM905.082 497.536C897.914 497.536 891.642 495.915 886.266 492.672C880.89 489.429 876.709 485.035 873.722 479.488C870.735 473.941 869.242 467.797 869.242 461.056C869.242 454.059 870.735 447.872 873.722 442.496C876.794 437.035 880.933 432.725 886.138 429.568C891.429 426.411 897.317 424.832 903.802 424.832C909.263 424.832 914.042 425.728 918.138 427.52C922.319 429.312 925.861 431.787 928.762 434.944C931.663 438.101 933.882 441.728 935.418 445.824C936.954 449.835 937.722 454.187 937.722 458.88C937.722 460.075 937.637 461.312 937.466 462.592C937.381 463.872 937.167 464.981 936.826 465.92H883.066V453.12H927.354L919.418 459.136C920.186 455.211 919.973 451.712 918.778 448.64C917.669 445.568 915.791 443.136 913.146 441.344C910.586 439.552 907.471 438.656 903.802 438.656C900.303 438.656 897.189 439.552 894.458 441.344C891.727 443.051 889.637 445.611 888.186 449.024C886.821 452.352 886.309 456.405 886.65 461.184C886.309 465.451 886.863 469.248 888.314 472.576C889.85 475.819 892.069 478.336 894.97 480.128C897.957 481.92 901.37 482.816 905.21 482.816C909.05 482.816 912.293 482.005 914.938 480.384C917.669 478.763 919.802 476.587 921.338 473.856L934.906 480.512C933.541 483.84 931.407 486.784 928.506 489.344C925.605 491.904 922.149 493.909 918.138 495.36C914.213 496.811 909.861 497.536 905.082 497.536Z" fill="url(#paint0_linear_83_8)"/>
    <path d="M157.672 607.768C154.216 607.768 151.101 606.979 148.328 605.4C145.597 603.779 143.443 601.603 141.864 598.872C140.285 596.099 139.496 592.984 139.496 589.528C139.496 586.072 140.285 582.979 141.864 580.248C143.443 577.517 145.597 575.363 148.328 573.784C151.101 572.205 154.216 571.416 157.672 571.416C160.147 571.416 162.451 571.864 164.584 572.76C166.717 573.613 168.552 574.808 170.088 576.344C171.667 577.837 172.797 579.629 173.48 581.72L166.12 584.92C165.48 583.171 164.392 581.763 162.856 580.696C161.363 579.629 159.635 579.096 157.672 579.096C155.837 579.096 154.195 579.544 152.744 580.44C151.336 581.336 150.227 582.573 149.416 584.152C148.605 585.731 148.2 587.544 148.2 589.592C148.2 591.64 148.605 593.453 149.416 595.032C150.227 596.611 151.336 597.848 152.744 598.744C154.195 599.64 155.837 600.088 157.672 600.088C159.677 600.088 161.427 599.555 162.92 598.488C164.413 597.421 165.48 595.992 166.12 594.2L173.48 597.528C172.797 599.491 171.688 601.261 170.152 602.84C168.616 604.376 166.781 605.592 164.648 606.488C162.515 607.341 160.189 607.768 157.672 607.768ZM196.866 607.768C193.452 607.768 190.338 606.979 187.522 605.4C184.748 603.821 182.53 601.667 180.866 598.936C179.244 596.205 178.434 593.091 178.434 589.592C178.434 586.093 179.244 582.979 180.866 580.248C182.53 577.517 184.748 575.363 187.522 573.784C190.295 572.205 193.41 571.416 196.866 571.416C200.279 571.416 203.372 572.205 206.146 573.784C208.919 575.363 211.116 577.517 212.738 580.248C214.402 582.936 215.234 586.051 215.234 589.592C215.234 593.091 214.402 596.205 212.738 598.936C211.074 601.667 208.855 603.821 206.082 605.4C203.308 606.979 200.236 607.768 196.866 607.768ZM196.866 600.088C198.743 600.088 200.386 599.64 201.794 598.744C203.244 597.848 204.375 596.611 205.186 595.032C206.039 593.411 206.466 591.597 206.466 589.592C206.466 587.544 206.039 585.752 205.186 584.216C204.375 582.637 203.244 581.4 201.794 580.504C200.386 579.565 198.743 579.096 196.866 579.096C194.946 579.096 193.26 579.565 191.81 580.504C190.359 581.4 189.207 582.637 188.354 584.216C187.543 585.752 187.138 587.544 187.138 589.592C187.138 591.597 187.543 593.411 188.354 595.032C189.207 596.611 190.359 597.848 191.81 598.744C193.26 599.64 194.946 600.088 196.866 600.088ZM221.592 607V572.184H229.464V580.248L228.568 578.904C229.208 576.387 230.488 574.509 232.408 573.272C234.328 572.035 236.589 571.416 239.192 571.416C242.05 571.416 244.568 572.163 246.744 573.656C248.92 575.149 250.328 577.112 250.968 579.544L248.6 579.736C249.666 576.963 251.266 574.893 253.4 573.528C255.533 572.12 257.986 571.416 260.76 571.416C263.234 571.416 265.432 571.971 267.352 573.08C269.314 574.189 270.85 575.747 271.96 577.752C273.069 579.715 273.624 581.997 273.624 584.6V607H265.24V586.584C265.24 585.048 264.962 583.725 264.408 582.616C263.853 581.507 263.085 580.653 262.104 580.056C261.122 579.416 259.928 579.096 258.52 579.096C257.197 579.096 256.024 579.416 255 580.056C253.976 580.653 253.186 581.507 252.632 582.616C252.077 583.725 251.8 585.048 251.8 586.584V607H243.416V586.584C243.416 585.048 243.138 583.725 242.584 582.616C242.029 581.507 241.24 580.653 240.216 580.056C239.234 579.416 238.061 579.096 236.696 579.096C235.373 579.096 234.2 579.416 233.176 580.056C232.152 580.653 231.362 581.507 230.808 582.616C230.253 583.725 229.976 585.048 229.976 586.584V607H221.592ZM280.717 607V572.184H288.589V580.248L287.693 578.904C288.333 576.387 289.613 574.509 291.533 573.272C293.453 572.035 295.714 571.416 298.317 571.416C301.175 571.416 303.693 572.163 305.869 573.656C308.045 575.149 309.453 577.112 310.093 579.544L307.725 579.736C308.791 576.963 310.391 574.893 312.525 573.528C314.658 572.12 317.111 571.416 319.885 571.416C322.359 571.416 324.557 571.971 326.477 573.08C328.439 574.189 329.975 575.747 331.085 577.752C332.194 579.715 332.749 581.997 332.749 584.6V607H324.365V586.584C324.365 585.048 324.087 583.725 323.533 582.616C322.978 581.507 322.21 580.653 321.229 580.056C320.247 579.416 319.053 579.096 317.645 579.096C316.322 579.096 315.149 579.416 314.125 580.056C313.101 580.653 312.311 581.507 311.757 582.616C311.202 583.725 310.925 585.048 310.925 586.584V607H302.541V586.584C302.541 585.048 302.263 583.725 301.709 582.616C301.154 581.507 300.365 580.653 299.341 580.056C298.359 579.416 297.186 579.096 295.821 579.096C294.498 579.096 293.325 579.416 292.301 580.056C291.277 580.653 290.487 581.507 289.933 582.616C289.378 583.725 289.101 585.048 289.101 586.584V607H280.717ZM352.258 607.768C349.57 607.768 347.223 607.171 345.218 605.976C343.255 604.781 341.74 603.117 340.674 600.984C339.65 598.851 339.138 596.355 339.138 593.496V572.184H347.522V592.792C347.522 594.243 347.799 595.523 348.354 596.632C348.951 597.699 349.783 598.552 350.85 599.192C351.959 599.789 353.196 600.088 354.562 600.088C355.927 600.088 357.143 599.789 358.21 599.192C359.276 598.552 360.108 597.677 360.706 596.568C361.303 595.459 361.602 594.136 361.602 592.6V572.184H369.986V607H362.05V600.152L362.754 601.368C361.943 603.501 360.599 605.101 358.722 606.168C356.887 607.235 354.732 607.768 352.258 607.768ZM377.779 607V572.184H385.651V579.032L385.011 577.816C385.822 575.725 387.144 574.147 388.979 573.08C390.856 571.971 393.032 571.416 395.507 571.416C398.067 571.416 400.328 571.971 402.291 573.08C404.296 574.189 405.854 575.747 406.963 577.752C408.072 579.715 408.627 581.997 408.627 584.6V607H400.243V586.584C400.243 585.048 399.944 583.725 399.347 582.616C398.75 581.507 397.918 580.653 396.851 580.056C395.827 579.416 394.611 579.096 393.203 579.096C391.838 579.096 390.622 579.416 389.555 580.056C388.488 580.653 387.656 581.507 387.059 582.616C386.462 583.725 386.163 585.048 386.163 586.584V607H377.779ZM415.717 607V572.184H424.101V607H415.717ZM415.717 568.28V559.32H424.101V568.28H415.717ZM447.714 607.384C443.788 607.384 440.738 606.317 438.562 604.184C436.428 602.008 435.362 598.957 435.362 595.032V579.672H429.346V572.184H429.986C431.692 572.184 433.015 571.736 433.954 570.84C434.892 569.944 435.362 568.643 435.362 566.936V564.248H443.746V572.184H451.746V579.672H443.746V594.584C443.746 595.736 443.938 596.717 444.322 597.528C444.748 598.339 445.388 598.957 446.242 599.384C447.138 599.811 448.268 600.024 449.634 600.024C449.932 600.024 450.274 600.003 450.658 599.96C451.084 599.917 451.49 599.875 451.874 599.832V607C451.276 607.085 450.594 607.171 449.826 607.256C449.058 607.341 448.354 607.384 447.714 607.384ZM462.503 621.144C461.564 621.144 460.647 621.059 459.751 620.888C458.855 620.76 458.044 620.525 457.319 620.184V613.144C457.874 613.272 458.535 613.4 459.303 613.528C460.114 613.656 460.86 613.72 461.543 613.72C463.463 613.72 464.85 613.272 465.703 612.376C466.599 611.48 467.388 610.307 468.071 608.856L470.375 603.48L470.247 610.52L455.079 572.184H464.103L474.727 600.472H471.527L482.087 572.184H491.175L476.007 610.52C475.111 612.781 474.023 614.701 472.743 616.28C471.463 617.859 469.97 619.053 468.263 619.864C466.599 620.717 464.679 621.144 462.503 621.144ZM520.402 607.768C516.69 607.768 513.447 606.893 510.674 605.144C507.943 603.352 506.066 600.941 505.042 597.912L511.314 594.904C512.21 596.867 513.447 598.403 515.026 599.512C516.647 600.621 518.439 601.176 520.402 601.176C521.938 601.176 523.154 600.835 524.05 600.152C524.946 599.469 525.394 598.573 525.394 597.464C525.394 596.781 525.202 596.227 524.818 595.8C524.477 595.331 523.986 594.947 523.346 594.648C522.749 594.307 522.087 594.029 521.362 593.816L515.666 592.216C512.722 591.363 510.482 590.061 508.946 588.312C507.453 586.563 506.706 584.493 506.706 582.104C506.706 579.971 507.239 578.115 508.306 576.536C509.415 574.915 510.93 573.656 512.85 572.76C514.813 571.864 517.053 571.416 519.57 571.416C522.855 571.416 525.757 572.205 528.274 573.784C530.791 575.363 532.583 577.581 533.65 580.44L527.25 583.448C526.653 581.869 525.65 580.611 524.242 579.672C522.834 578.733 521.255 578.264 519.506 578.264C518.098 578.264 516.989 578.584 516.178 579.224C515.367 579.864 514.962 580.696 514.962 581.72C514.962 582.36 515.133 582.915 515.474 583.384C515.815 583.853 516.285 584.237 516.882 584.536C517.522 584.835 518.247 585.112 519.058 585.368L524.626 587.032C527.485 587.885 529.682 589.165 531.218 590.872C532.797 592.579 533.586 594.669 533.586 597.144C533.586 599.235 533.031 601.091 531.922 602.712C530.813 604.291 529.277 605.528 527.314 606.424C525.351 607.32 523.047 607.768 520.402 607.768ZM540.029 607V558.552H548.413V590.296L545.213 589.336L561.597 572.184H572.029L559.165 586.2L572.285 607H562.685L551.293 588.952L556.285 587.928L545.789 599.192L548.413 594.072V607H540.029ZM576.967 607V572.184H585.351V607H576.967ZM576.967 568.28V559.32H585.351V568.28H576.967ZM593.092 607V558.552H601.476V607H593.092ZM609.217 607V558.552H617.601V607H609.217ZM649.965 607.768C646.253 607.768 643.01 606.893 640.237 605.144C637.506 603.352 635.629 600.941 634.605 597.912L640.877 594.904C641.773 596.867 643.01 598.403 644.589 599.512C646.21 600.621 648.002 601.176 649.965 601.176C651.501 601.176 652.717 600.835 653.613 600.152C654.509 599.469 654.957 598.573 654.957 597.464C654.957 596.781 654.765 596.227 654.381 595.8C654.039 595.331 653.549 594.947 652.909 594.648C652.311 594.307 651.65 594.029 650.925 593.816L645.229 592.216C642.285 591.363 640.045 590.061 638.509 588.312C637.015 586.563 636.269 584.493 636.269 582.104C636.269 579.971 636.802 578.115 637.869 576.536C638.978 574.915 640.493 573.656 642.413 572.76C644.375 571.864 646.615 571.416 649.133 571.416C652.418 571.416 655.319 572.205 657.837 573.784C660.354 575.363 662.146 577.581 663.213 580.44L656.813 583.448C656.215 581.869 655.213 580.611 653.805 579.672C652.397 578.733 650.818 578.264 649.069 578.264C647.661 578.264 646.551 578.584 645.741 579.224C644.93 579.864 644.525 580.696 644.525 581.72C644.525 582.36 644.695 582.915 645.037 583.384C645.378 583.853 645.847 584.237 646.445 584.536C647.085 584.835 647.81 585.112 648.621 585.368L654.189 587.032C657.047 587.885 659.245 589.165 660.781 590.872C662.359 592.579 663.149 594.669 663.149 597.144C663.149 599.235 662.594 601.091 661.485 602.712C660.375 604.291 658.839 605.528 656.877 606.424C654.914 607.32 652.61 607.768 649.965 607.768ZM669.592 607V558.552H677.976V579.032L676.824 577.816C677.634 575.725 678.957 574.147 680.792 573.08C682.669 571.971 684.845 571.416 687.32 571.416C689.88 571.416 692.141 571.971 694.104 573.08C696.109 574.189 697.666 575.747 698.776 577.752C699.885 579.715 700.44 581.997 700.44 584.6V607H692.056V586.584C692.056 585.048 691.757 583.725 691.16 582.616C690.562 581.507 689.73 580.653 688.664 580.056C687.64 579.416 686.424 579.096 685.016 579.096C683.65 579.096 682.434 579.416 681.368 580.056C680.301 580.653 679.469 581.507 678.872 582.616C678.274 583.725 677.976 585.048 677.976 586.584V607H669.592ZM718.089 607.768C715.657 607.768 713.545 607.363 711.753 606.552C709.961 605.741 708.574 604.589 707.593 603.096C706.612 601.56 706.121 599.789 706.121 597.784C706.121 595.864 706.548 594.157 707.401 592.664C708.254 591.128 709.577 589.848 711.369 588.824C713.161 587.8 715.422 587.075 718.153 586.648L729.545 584.792V591.192L719.753 592.856C718.089 593.155 716.852 593.688 716.041 594.456C715.23 595.224 714.825 596.227 714.825 597.464C714.825 598.659 715.273 599.619 716.169 600.344C717.108 601.027 718.26 601.368 719.625 601.368C721.374 601.368 722.91 601.005 724.233 600.28C725.598 599.512 726.644 598.467 727.369 597.144C728.137 595.821 728.521 594.371 728.521 592.792V583.832C728.521 582.339 727.924 581.101 726.729 580.12C725.577 579.096 724.041 578.584 722.121 578.584C720.329 578.584 718.729 579.075 717.321 580.056C715.956 580.995 714.953 582.253 714.313 583.832L707.465 580.504C708.148 578.669 709.214 577.091 710.665 575.768C712.158 574.403 713.908 573.336 715.913 572.568C717.918 571.8 720.094 571.416 722.441 571.416C725.3 571.416 727.817 571.949 729.993 573.016C732.169 574.04 733.854 575.491 735.049 577.368C736.286 579.203 736.905 581.357 736.905 583.832V607H728.969V601.048L730.761 600.92C729.865 602.413 728.798 603.672 727.561 604.696C726.324 605.677 724.916 606.445 723.337 607C721.758 607.512 720.009 607.768 718.089 607.768ZM744.654 607V572.184H752.526V579.928L751.886 578.776C752.697 576.173 753.955 574.36 755.662 573.336C757.411 572.312 759.502 571.8 761.934 571.8H763.982V579.224H760.974C758.585 579.224 756.665 579.971 755.214 581.464C753.763 582.915 753.038 584.963 753.038 587.608V607H744.654ZM768.592 607V572.184H776.976V607H768.592ZM768.592 568.28V559.32H776.976V568.28H768.592ZM784.717 607V572.184H792.589V579.032L791.949 577.816C792.759 575.725 794.082 574.147 795.917 573.08C797.794 571.971 799.97 571.416 802.445 571.416C805.005 571.416 807.266 571.971 809.229 573.08C811.234 574.189 812.791 575.747 813.901 577.752C815.01 579.715 815.565 581.997 815.565 584.6V607H807.181V586.584C807.181 585.048 806.882 583.725 806.285 582.616C805.687 581.507 804.855 580.653 803.789 580.056C802.765 579.416 801.549 579.096 800.141 579.096C798.775 579.096 797.559 579.416 796.493 580.056C795.426 580.653 794.594 581.507 793.997 582.616C793.399 583.725 793.101 585.048 793.101 586.584V607H784.717ZM839.55 621.08C836.947 621.08 834.537 620.653 832.318 619.8C830.099 618.947 828.179 617.752 826.558 616.216C824.979 614.723 823.827 612.952 823.102 610.904L830.91 607.96C831.422 609.581 832.425 610.883 833.918 611.864C835.454 612.888 837.331 613.4 839.55 613.4C841.257 613.4 842.75 613.08 844.03 612.44C845.353 611.8 846.377 610.861 847.102 609.624C847.827 608.429 848.19 606.979 848.19 605.272V597.336L849.79 599.256C848.595 601.347 846.995 602.925 844.99 603.992C842.985 605.059 840.702 605.592 838.142 605.592C834.899 605.592 831.998 604.845 829.438 603.352C826.878 601.859 824.873 599.811 823.422 597.208C821.971 594.605 821.246 591.683 821.246 588.44C821.246 585.155 821.971 582.232 823.422 579.672C824.873 577.112 826.857 575.107 829.374 573.656C831.891 572.163 834.75 571.416 837.95 571.416C840.553 571.416 842.835 571.971 844.798 573.08C846.803 574.147 848.467 575.704 849.79 577.752L848.638 579.864V572.184H856.574V605.272C856.574 608.301 855.827 611.011 854.334 613.4C852.883 615.789 850.878 617.667 848.318 619.032C845.801 620.397 842.878 621.08 839.55 621.08ZM839.166 597.848C840.958 597.848 842.515 597.464 843.838 596.696C845.203 595.885 846.27 594.776 847.038 593.368C847.806 591.96 848.19 590.339 848.19 588.504C848.19 586.712 847.785 585.112 846.974 583.704C846.206 582.253 845.139 581.123 843.774 580.312C842.451 579.501 840.915 579.096 839.166 579.096C837.417 579.096 835.838 579.501 834.43 580.312C833.022 581.123 831.913 582.253 831.102 583.704C830.334 585.112 829.95 586.712 829.95 588.504C829.95 590.296 830.334 591.896 831.102 593.304C831.913 594.712 833.001 595.821 834.366 596.632C835.774 597.443 837.374 597.848 839.166 597.848Z" fill="#4A95E7"/>
    <defs>
    <linearGradient id="paint0_linear_83_8" x1="137" y1="443.5" x2="943" y2="443.5" gradientUnits="userSpaceOnUse">
    <stop stop-color="#4954E0"/>
    <stop offset="1" stop-color="#4A95E7"/>
    </linearGradient>
    </defs>
    </svg>
    